<?xml version="1.0" standalone="no"?><!DOCTYPE svg PUBLIC "-//W3C//DTD SVG 1.1//EN" "http://www.w3.org/Graphics/SVG/1.1/DTD/svg11.dtd"><svg t="1706021559763" class="icon" viewBox="0 0 1024 1024" version="1.1" xmlns="http://www.w3.org/2000/svg" p-id="69311" xmlns:xlink="http://www.w3.org/1999/xlink" width="200" height="200"><path d="M649.46176 0h70.77888a94.90432 94.90432 0 0 1 94.33088 94.86336v303.5136L649.50272 0m254.7712 75.89888l61.35808 28.42624c47.18592 19.00544 70.77888 75.89888 51.89632 123.2896l-113.2544 279.83872V75.93984M805.15072 630.784l-235.9296-569.1392C555.08992 23.7568 522.0352 4.7104 484.31104 4.7104c-14.17216 0-23.59296 4.79232-37.76512 9.50272L97.40288 156.50816C50.21696 175.47264 26.624 227.65568 50.21696 275.08736l235.9296 569.09824C300.2368 882.15552 333.33248 901.12 371.05664 901.12c14.17216 0 23.59296 0 37.76512-9.50272l349.14304-142.25408c37.76512-14.25408 56.64768-47.43168 56.64768-85.4016-4.75136-9.46176-4.75136-23.67488-9.4208-33.1776z m-311.41888-23.71584l-150.97856-113.82784 18.8416-189.68576 151.01952 113.82784-18.8416 189.68576z" fill="#72befc" p-id="69312"></path></svg>