<svg xmlns="http://www.w3.org/2000/svg" version="1.1" viewBox="11.33 10 38 38" width="38" height="38" xmlns:xlink="http://www.w3.org/1999/xlink" xmlns:svgjs="http://svgjs.dev/svgjs">
<g stroke-width="2.00" fill="none" stroke-linecap="butt">
<path stroke="#d18f77" stroke-opacity="0.992" d="&#10;  M 45.05 28.98&#10;  L 30.31 15.82&#10;  A 0.46 0.46 0.0 0 0 29.70 15.82&#10;  L 14.82 29.22"/>
<path stroke="#e3997a" stroke-opacity="0.992" d="&#10;  M 30.05 45.94&#10;  L 29.98 31.66&#10;  A 0.75 0.75 0.0 0 0 29.23 30.92&#10;  L 20.11 30.96&#10;  A 0.63 0.63 0.0 0 0 19.49 31.58&#10;  L 19.28 45.94"/>
</g>
<path fill="#b83607" d="&#10;  M 45.05 28.98&#10;  L 30.31 15.82&#10;  A 0.46 0.46 0.0 0 0 29.70 15.82&#10;  L 14.82 29.22&#10;  L 13.41 27.13&#10;  A 1.05 1.05 0.0 0 1 13.58 25.76&#10;  L 28.13 12.72&#10;  Q 30.03 11.02 31.91 12.74&#10;  L 46.17 25.79&#10;  A 1.06 1.05 32.4 0 1 46.44 26.97&#10;  Q 45.90 28.30 45.05 28.98&#10;  Z"/>
<path fill="#eaeaea" fill-opacity="0.980" d="&#10;  M 45.05 28.98&#10;  L 44.70 44.47&#10;  A 1.51 1.50 0.6 0 1 43.20 45.93&#10;  L 30.05 45.94&#10;  L 29.98 31.66&#10;  A 0.75 0.75 0.0 0 0 29.23 30.92&#10;  L 20.11 30.96&#10;  A 0.63 0.63 0.0 0 0 19.49 31.58&#10;  L 19.28 45.94&#10;  L 17.12 45.98&#10;  Q 15.28 46.01 15.22 44.16&#10;  L 14.82 29.22&#10;  L 29.70 15.82&#10;  A 0.46 0.46 0.0 0 1 30.31 15.82&#10;  L 45.05 28.98&#10;  Z&#10;  M 40.5488 31.9622&#10;  A 0.94 0.94 0.0 0 0 39.6121 31.0189&#10;  L 34.5122 31.0011&#10;  A 0.94 0.94 0.0 0 0 33.5689 31.9378&#10;  L 33.5512 37.0178&#10;  A 0.94 0.94 0.0 0 0 34.4879 37.9611&#10;  L 39.5878 37.9789&#10;  A 0.94 0.94 0.0 0 0 40.5311 37.0422&#10;  L 40.5488 31.9622&#10;  Z"/>
<path fill="#dd490d" d="&#10;  M 30.05 45.94&#10;  L 19.28 45.94&#10;  L 19.49 31.58&#10;  A 0.63 0.63 0.0 0 1 20.11 30.96&#10;  L 29.23 30.92&#10;  A 0.75 0.75 0.0 0 1 29.98 31.66&#10;  L 30.05 45.94&#10;  Z"/>
<rect fill="#1b99db" fill-opacity="0.988" x="-3.49" y="-3.48" transform="translate(37.05,34.49) rotate(0.2)" width="6.98" height="6.96" rx="0.94"/>
</svg>