<?xml version="1.0" standalone="no"?><!DOCTYPE svg PUBLIC "-//W3C//DTD SVG 1.1//EN" "http://www.w3.org/Graphics/SVG/1.1/DTD/svg11.dtd"><svg t="1706020818821" class="icon" viewBox="0 0 1024 1024" version="1.1" xmlns="http://www.w3.org/2000/svg" p-id="36643" xmlns:xlink="http://www.w3.org/1999/xlink" width="200" height="200"><path d="M512.06144 102.11328c107.4176 0 199.53664 80.75264 215.8592 188.12928a171.39712 171.39712 0 0 1 51.44576-8.02816c48.00512 0 91.56608 19.88608 123.04384 51.93728a178.85184 178.85184 0 0 1 50.91328 125.31712 178.85184 178.85184 0 0 1-46.94016 121.15968l41.45152 41.984c18.26816 18.90304 32.1536 39.7312 41.49248 62.81216v-0.36864A195.74784 195.74784 0 0 1 1003.52 759.74656v52.24448c0 13.76256-4.25984 28.52864-12.22656 39.71072-8.54016 12.20608-21.13536 21.15584-37.23264 23.08096-1.29024 0-2.51904 0.32768-3.80928 0.32768h-39.85408v14.41792c0 17.96096-14.31552 32.37888-31.8464 32.37888H145.5104c-17.6128 0-31.8464-14.41792-31.8464-32.37888v-14.41792H73.70752c-1.16736 0-2.41664-0.32768-3.6864-0.32768-16.19968-1.92512-28.7744-10.87488-37.29408-23.08096C24.7808 840.4992 20.48 825.73312 20.48 811.97056v-52.24448c0-26.624 4.8128-51.28192 14.17216-74.67008l0.04096 0.34816c9.35936-23.08096 23.28576-43.9296 41.55392-62.81216l41.3696-41.984a179.03616 179.03616 0 0 1-46.87872-121.15968c0-48.72192 19.51744-93.26592 50.97472-125.31712a171.78624 171.78624 0 0 1 123.00288-51.93728c17.75616 0 35.04128 2.88768 51.42528 8.02816 16.2816-107.35616 108.42112-188.1088 215.92064-188.1088z m98.32448 754.74944V827.67872l0.14336-2.58048v-115.36384c0-10.87488 8.6016-19.53792 19.21024-19.53792 10.52672 0 19.08736 8.66304 19.08736 19.53792v85.56544h82.35008a17.1008 17.1008 0 0 0 1.55648-7.35232v-69.24288c0-24.65792-4.21888-47.73888-12.71808-68.58752v-0.3072a166.0928 166.0928 0 0 0-20.45952-36.22912l-0.1024-0.32768-0.45056-0.63488h-0.12288l-0.38912-0.32768-0.26624-0.63488a204.26752 204.26752 0 0 0-17.01888-19.5584v-0.3072l-68.4032-69.55008a214.03648 214.03648 0 0 1-100.74112 25.00608c-36.39296 0-70.69696-8.97024-100.90496-25.00608l-68.25984 69.57056h-0.16384l0.16384 0.3072a196.52608 196.52608 0 0 0-17.05984 19.5584l-0.38912 0.63488-0.32768 0.32768h-0.06144l-0.47104 0.63488-0.06144 0.32768a160.82944 160.82944 0 0 0-20.48 36.22912h-0.06144l0.06144 0.3072c-8.45824 20.84864-12.71808 43.9296-12.71808 68.58752v69.24288a16.1792 16.1792 0 0 0 1.51552 7.35232h82.41152v-85.56544c0-10.87488 8.56064-19.53792 19.10784-19.53792 10.5472 0 19.10784 8.66304 19.10784 19.53792v115.36384l0.16384 2.58048V856.8832h196.75136v-0.02048zM512.06144 482.5088c84.21376 0 154.70592-69.5296 154.70592-157.67552 0-87.16288-69.38624-157.98272-154.70592-157.98272-85.4016 0-154.84928 70.81984-154.84928 157.98272 0 88.14592 70.5536 157.67552 154.84928 157.67552zM177.90976 856.86272h92.63104c-12.04224-4.17792-21.68832-12.51328-28.91776-22.77376-9.216-13.14816-14.17216-30.12608-14.17216-46.14144v-69.24288c0-28.83584 4.5056-56.05376 13.45536-82.04288a168.46848 168.46848 0 0 1-71.5776-17.3056l-47.94368 49.0496c-12.51328 12.84096-21.87264 26.60352-27.99616 41.65632-6.06208 15.0528-9.05216 31.41632-9.05216 49.68448v50.29888h55.296v-57.36448c0-10.89536 8.58112-19.5584 19.12832-19.5584 10.58816 0 19.16928 8.66304 19.16928 19.5584v104.18176h-0.02048z m118.3744-496.76288a121.81504 121.81504 0 0 0-18.41152-7.70048 111.3088 111.3088 0 0 0-33.1776-5.14048 108.46208 108.46208 0 0 0-77.94688 33.01376 112.72192 112.72192 0 0 0-32.23552 79.1552 112.8448 112.8448 0 0 0 32.23552 79.4624c19.968 20.1728 47.59552 33.01376 77.94688 33.01376 7.84384 0 15.23712-0.98304 21.93408-2.2528a97.6896 97.6896 0 0 0 13.43488-3.82976c5.50912-6.7584 11.40736-13.47584 17.67424-19.88608l61.35808-62.17728-1.41312-1.61792h-0.16384v-0.32768c-29.42976-29.7984-48.128-66.33472-58.49088-107.02848-0.38912-3.52256-1.31072-7.0656-2.02752-10.58816l-0.24576-0.94208-0.16384-0.96256-0.3072-2.19136z m549.82656 496.76288v-104.18176c0-10.89536 8.6016-19.5584 19.21024-19.5584 10.52672 0 19.08736 8.66304 19.08736 19.5584v57.36448h55.41888v-50.29888c0-18.26816-3.15392-34.6112-9.25696-49.68448h0.1024-0.1024c-6.0416-15.0528-15.42144-28.81536-27.81184-41.65632l-48.128-49.0496a167.79264 167.79264 0 0 1-71.4752 17.3056c8.88832 25.98912 13.35296 53.20704 13.35296 82.04288v69.24288c0 16.01536-4.85376 32.99328-14.1312 46.14144-7.2704 10.26048-16.93696 18.59584-28.8768 22.77376h92.61056z m-118.31296-496.76288l-0.43008 2.21184-0.14336 0.96256-0.08192 0.63488-0.06144 0.3072c-8.92928 44.56448-28.7744 85.58592-60.57984 117.61664l-0.08192 0.32768h-0.06144l-1.41312 1.61792 61.21472 62.17728h0.1024c6.32832 6.41024 12.22656 13.12768 17.6128 19.88608 4.4032 1.57696 8.88832 2.8672 13.53728 3.82976 6.59456 1.29024 14.00832 2.2528 21.9136 2.2528a109.50656 109.50656 0 0 0 77.88544-33.01376h0.1024a113.11104 113.11104 0 0 0 32.19456-79.4624c0-30.76096-12.36992-58.9824-32.29696-79.1552a108.1344 108.1344 0 0 0-77.88544-33.01376c-11.71456 0-22.87616 1.92512-33.25952 5.14048a121.32352 121.32352 0 0 0-18.26816 7.68z" fill="#1696df" p-id="36644"></path></svg>