<?xml version="1.0" standalone="no"?><!DOCTYPE svg PUBLIC "-//W3C//DTD SVG 1.1//EN" "http://www.w3.org/Graphics/SVG/1.1/DTD/svg11.dtd"><svg t="1706021782303" class="icon" viewBox="0 0 1024 1024" version="1.1" xmlns="http://www.w3.org/2000/svg" p-id="77364" xmlns:xlink="http://www.w3.org/1999/xlink" width="200" height="200"><path d="M0 0m365.714286 0l292.571428 0q365.714286 0 365.714286 365.714286l0 292.571428q0 365.714286-365.714286 365.714286l-292.571428 0q-365.714286 0-365.714286-365.714286l0-292.571428q0-365.714286 365.714286-365.714286Z" fill="#FF5C64" opacity=".1" p-id="77365"></path><path d="M329.142857 804.571429a109.842286 109.842286 0 0 1-109.714286-109.714286v-256a109.842286 109.842286 0 0 1 109.714286-109.714286h18.285714a164.754286 164.754286 0 0 1 164.571429-164.571428 164.754286 164.754286 0 0 1 164.571429 164.571428h18.285714a109.842286 109.842286 0 0 1 109.714286 109.714286v256a109.842286 109.842286 0 0 1-109.714286 109.714286z m73.764572-152.027429a164.169143 164.169143 0 0 0 110.098285 42.313143 164.114286 164.114286 0 0 0 110.08-42.331429A164.333714 164.333714 0 0 0 676.571429 548.571429h-55.369143a109.403429 109.403429 0 0 1-108.196572 91.428571 109.385143 109.385143 0 0 1-108.196571-91.428571h-55.369143a164.224 164.224 0 0 0 53.467429 103.972571zM621.714286 329.142857a109.842286 109.842286 0 0 0-109.714286-109.714286 109.842286 109.842286 0 0 0-109.714286 109.714286z" fill="#FF5C64" p-id="77366"></path></svg>