<?xml version="1.0" standalone="no"?><!DOCTYPE svg PUBLIC "-//W3C//DTD SVG 1.1//EN" "http://www.w3.org/Graphics/SVG/1.1/DTD/svg11.dtd"><svg t="1706021469304" class="icon" viewBox="0 0 1024 1024" version="1.1" xmlns="http://www.w3.org/2000/svg" p-id="62262" xmlns:xlink="http://www.w3.org/1999/xlink" width="200" height="200"><path d="M512 590.677333a258.389333 258.389333 0 1 1 257.664-258.389333 258.389333 258.389333 0 0 1-257.664 258.389333z m0-429.44a171.776 171.776 0 1 0 171.050667 171.050667 171.776 171.776 0 0 0-171.050667-171.050667z" fill="#30548F" p-id="62263"></path><path d="M879.36 415.914667a180.437333 180.437333 0 0 0-132.778667-129.194667s-168.32-14.336-216.533333-9.984-251.178667 10.112-251.178667 10.112A180.437333 180.437333 0 0 0 144.64 415.914667a472.021333 472.021333 0 0 0 28.885333 221.866666c110.421333 258.389333 288.682667 304.554667 333.44 312.490667h20.949334c43.306667-7.936 212.906667-54.869333 322.602666-312.490667a472.021333 472.021333 0 0 0 28.842667-221.866666z" fill="#3273C8" p-id="62264"></path><path d="M506.24 479.530667m-122.709333 0a122.709333 122.709333 0 1 0 245.418666 0 122.709333 122.709333 0 1 0-245.418666 0Z" fill="#72BEFC" p-id="62265"></path><path d="M280.661333 812.245333a404.906667 404.906667 0 0 0 225.28 137.856h20.949334a389.034667 389.034667 0 0 0 216.533333-136.533333 216.533333 216.533333 0 0 0-230.954667-179.2 216.533333 216.533333 0 0 0-231.68 177.536z" fill="#72BEFC" p-id="62266"></path></svg>