<?xml version="1.0" standalone="no"?><!DOCTYPE svg PUBLIC "-//W3C//DTD SVG 1.1//EN" "http://www.w3.org/Graphics/SVG/1.1/DTD/svg11.dtd"><svg height="166" node-id="1" sillyvg="true" template-height="166" template-width="160" version="1.1" viewBox="0 0 160 166" width="160" xmlns="http://www.w3.org/2000/svg" xmlns:xlink="http://www.w3.org/1999/xlink"><defs node-id="33"><linearGradient gradientUnits="objectBoundingBox" id="linearGradient-1" node-id="5" spreadMethod="pad" x1="1" x2="0.32677394" y1="0.27906638" y2="0.58414966"><stop offset="0" stop-color="#81e6ff"></stop><stop offset="1" stop-color="#409eff"></stop></linearGradient><linearGradient gradientUnits="objectBoundingBox" id="linearGradient-2" node-id="8" spreadMethod="pad" x1="1" x2="0.20246369" y1="0.3154142" y2="0.7285564"><stop offset="0" stop-color="#979797" stop-opacity="0"></stop><stop offset="1" stop-color="#ffffff" stop-opacity="0.3809456"></stop></linearGradient><linearGradient gradientUnits="objectBoundingBox" id="linearGradient-3" node-id="11" spreadMethod="pad" x1="0.5" x2="0.5" y1="0" y2="1"><stop offset="0" stop-color="#ffffff" stop-opacity="0.2777885"></stop><stop offset="1" stop-color="#ffffff" stop-opacity="0.6"></stop></linearGradient><linearGradient gradientUnits="objectBoundingBox" id="linearGradient-4" node-id="14" spreadMethod="pad" x1="0.5" x2="0.2370729" y1="0.5" y2="0.9921641"><stop offset="0" stop-color="#ffffff" stop-opacity="0"></stop><stop offset="1" stop-color="#ffffff"></stop></linearGradient><linearGradient gradientUnits="objectBoundingBox" id="linearGradient-5" node-id="17" spreadMethod="pad" x1="0.5" x2="0.7773682" y1="0" y2="1"><stop offset="0" stop-color="#ffffff" stop-opacity="0"></stop><stop offset="1" stop-color="#ffffff" stop-opacity="0.72196054"></stop></linearGradient><linearGradient gradientUnits="objectBoundingBox" id="linearGradient-6" node-id="20" spreadMethod="pad" x1="0.005373416" x2="0.6536239" y1="-0.06438631" y2="0.62410575"><stop offset="0" stop-color="#ffffff" stop-opacity="0.8885097"></stop><stop offset="1" stop-color="#ffffff" stop-opacity="0"></stop></linearGradient></defs><g node-id="70"><g node-id="71"><path d="M 40.00 0.00 L 120.00 0.00 L 124.15 0.22 L 128.12 0.82 L 131.92 1.80 L 135.57 3.14 L 139.09 4.85 L 142.38 6.84 L 145.43 9.12 L 148.28 11.72 L 150.88 14.57 L 153.16 17.62 L 155.15 20.91 L 156.86 24.43 L 158.20 28.08 L 159.18 31.88 L 159.78 35.85 L 160.00 40.00 L 160.00 126.00 L 159.78 130.15 L 159.18 134.12 L 158.20 137.92 L 156.86 141.57 L 155.15 145.09 L 153.16 148.38 L 150.88 151.43 L 148.28 154.28 L 145.43 156.88 L 142.38 159.16 L 139.09 161.15 L 135.57 162.86 L 131.92 164.20 L 128.12 165.18 L 124.15 165.78 L 120.00 166.00 L 40.00 166.00 L 35.85 165.78 L 31.88 165.18 L 28.08 164.20 L 24.43 162.86 L 20.91 161.15 L 17.62 159.16 L 14.57 156.88 L 11.72 154.28 L 9.12 151.43 L 6.84 148.38 L 4.85 145.09 L 3.14 141.57 L 1.80 137.92 L 0.82 134.12 L 0.22 130.15 L 0.00 126.00 L 0.00 40.00 L 0.22 35.85 L 0.82 31.88 L 1.80 28.08 L 3.14 24.43 L 4.85 20.91 L 6.84 17.62 L 9.12 14.57 L 11.72 11.72 L 14.57 9.12 L 17.62 6.84 L 20.91 4.85 L 24.43 3.14 L 28.08 1.80 L 31.88 0.82 L 35.85 0.22 L 40.00 0.00 Z" fill="#304b68" fill-rule="evenodd" group-id="1,2" id="背景" node-id="26" stroke="none" target-height="166" target-width="160" target-x="0" target-y="0"></path><g node-id="72"><path d="M 80.00 23.00 L 80.00 23.00 L 84.98 23.21 L 89.79 23.80 L 94.45 24.75 L 98.96 26.06 L 103.38 27.73 L 107.59 29.71 L 111.61 31.99 L 115.44 34.58 L 120.21 38.47 L 124.53 42.79 L 128.42 47.56 L 131.01 51.39 L 133.29 55.41 L 135.27 59.62 L 136.94 64.04 L 138.25 68.55 L 139.20 73.21 L 139.79 78.02 L 140.00 83.00 L 140.00 83.00 L 139.79 87.98 L 139.20 92.79 L 138.25 97.45 L 136.94 101.96 L 135.27 106.38 L 133.29 110.59 L 131.01 114.61 L 128.42 118.44 L 124.53 123.21 L 120.21 127.53 L 115.44 131.42 L 111.61 134.01 L 107.59 136.29 L 103.38 138.27 L 98.96 139.94 L 94.45 141.25 L 89.79 142.20 L 84.98 142.79 L 80.00 143.00 L 80.00 143.00 L 75.02 142.79 L 70.21 142.20 L 65.55 141.25 L 61.04 139.94 L 56.62 138.27 L 52.41 136.29 L 48.39 134.01 L 44.56 131.42 L 39.79 127.53 L 35.47 123.21 L 31.58 118.44 L 28.99 114.61 L 26.71 110.59 L 24.73 106.38 L 23.06 101.96 L 21.75 97.45 L 20.80 92.79 L 20.21 87.98 L 20.00 83.00 L 20.00 83.00 L 20.21 78.02 L 20.80 73.21 L 21.75 68.55 L 23.06 64.04 L 24.73 59.62 L 26.71 55.41 L 28.99 51.39 L 31.58 47.56 L 35.47 42.79 L 39.79 38.47 L 44.56 34.58 L 48.39 31.99 L 52.41 29.71 L 56.62 27.73 L 61.04 26.06 L 65.55 24.75 L 70.21 23.80 L 75.02 23.21 L 80.00 23.00 Z" fill="none" group-id="1,2,3" id="选中背景" node-id="28" stroke="none" target-height="120" target-width="120" target-x="20" target-y="23"></path><path d="M 111.00 75.50 L 112.52 75.65 L 113.92 76.09 L 115.20 76.78 L 116.30 77.70 L 117.22 78.80 L 117.91 80.08 L 118.35 81.48 L 118.50 83.00 L 118.50 83.00 L 118.50 115.00 L 118.35 116.52 L 117.91 117.92 L 117.22 119.20 L 116.30 120.30 L 115.20 121.22 L 113.92 121.91 L 112.52 122.35 L 111.00 122.50 L 111.00 122.50 L 48.00 122.50 L 46.48 122.35 L 45.08 121.91 L 43.80 121.22 L 42.70 120.30 L 41.78 119.20 L 41.09 117.92 L 40.65 116.52 L 40.50 115.00 L 40.50 115.00 L 40.50 92.00 L 40.66 89.73 L 41.09 87.60 L 41.80 85.58 L 43.32 82.77 L 45.33 80.33 L 47.77 78.32 L 50.58 76.80 L 52.60 76.09 L 54.73 75.66 L 57.00 75.50 L 57.00 75.50 Z" fill="url(#linearGradient-1)" fill-rule="evenodd" group-id="1,2,3" id="矩形" node-id="29" stroke="url(#linearGradient-2)" stroke-linecap="butt" stroke-width="1" target-height="47" target-width="78" target-x="40.5" target-y="75.5"></path><path d="M 115.25 62.30 L 108.17 61.02 L 107.23 58.80 L 106.12 56.66 L 104.82 54.61 L 103.38 52.69 L 105.82 45.89 L 105.98 45.09 L 105.89 44.30 L 105.57 43.58 L 105.04 42.96 L 104.86 42.81 L 101.30 40.15 L 97.47 37.96 L 93.35 36.23 L 93.13 36.15 L 92.33 36.00 L 91.54 36.09 L 90.81 36.41 L 90.18 36.95 L 85.47 42.46 L 82.25 42.13 L 79.04 42.14 L 75.83 42.52 L 71.16 37.05 L 70.54 36.52 L 69.81 36.20 L 69.02 36.12 L 68.21 36.28 L 67.99 36.36 L 64.91 37.64 L 61.92 39.20 L 59.08 41.02 L 56.43 43.06 L 56.25 43.21 L 55.71 43.84 L 55.39 44.57 L 55.29 45.35 L 55.44 46.16 L 57.83 52.98 L 55.93 55.58 L 54.32 58.35 L 53.01 61.30 L 45.85 62.65 L 45.07 62.92 L 44.43 63.40 L 43.96 64.04 L 43.68 64.82 L 43.64 65.05 L 43.08 69.51 L 43.05 73.93 L 43.56 78.35 L 43.60 78.57 L 43.86 79.35 L 44.33 79.98 L 44.97 80.45 L 45.74 80.72 L 52.91 82.01 L 53.84 84.21 L 54.94 86.32 L 56.22 88.35 L 57.64 90.24 L 55.18 97.11 L 55.02 97.91 L 55.11 98.70 L 55.43 99.42 L 55.96 100.04 L 56.14 100.19 L 59.70 102.85 L 63.53 105.04 L 67.65 106.77 L 67.87 106.85 L 68.67 107.00 L 69.46 106.91 L 70.19 106.59 L 70.82 106.05 L 75.57 100.50 L 78.77 100.84 L 81.96 100.83 L 85.15 100.46 L 89.84 105.95 L 90.46 106.48 L 91.19 106.80 L 91.98 106.88 L 92.79 106.72 L 93.01 106.64 L 96.10 105.36 L 99.08 103.80 L 101.92 101.98 L 104.57 99.94 L 104.75 99.79 L 105.29 99.16 L 105.61 98.43 L 105.71 97.65 L 105.56 96.84 L 103.18 90.05 L 105.10 87.44 L 106.72 84.66 L 108.04 81.69 L 115.15 80.35 L 115.93 80.08 L 116.57 79.60 L 117.04 78.96 L 117.32 78.18 L 117.36 77.95 L 117.92 73.49 L 117.95 69.07 L 117.44 64.65 L 117.40 64.43 L 117.13 63.66 L 116.66 63.03 L 116.03 62.57 L 115.25 62.30 Z" fill="url(#linearGradient-3)" fill-rule="nonzero" group-id="1,2,3" id="路径" node-id="30" stroke="url(#linearGradient-4)" stroke-linecap="butt" stroke-width="1" target-height="70.99725" target-width="74.891884" target-x="43.054054" target-y="36.00137"></path><path d="M 80.00 85.00 L 77.37 84.75 L 74.96 84.09 L 72.72 83.02 L 70.70 81.58 L 68.98 79.85 L 67.55 77.82 L 66.48 75.57 L 65.82 73.15 L 65.58 70.50 L 65.82 67.85 L 66.48 65.43 L 67.55 63.18 L 68.98 61.15 L 70.70 59.42 L 72.72 57.98 L 74.96 56.91 L 77.37 56.25 L 80.00 56.00 L 82.63 56.25 L 85.04 56.91 L 87.28 57.98 L 89.30 59.42 L 91.02 61.15 L 92.45 63.18 L 93.52 65.43 L 94.18 67.85 L 94.42 70.50 L 94.18 73.15 L 93.52 75.57 L 92.45 77.82 L 91.02 79.85 L 89.30 81.58 L 87.28 83.02 L 85.04 84.09 L 82.63 84.75 L 80.00 85.00 Z" fill="url(#linearGradient-5)" fill-opacity="0.48" fill-rule="nonzero" group-id="1,2,3" id="路径" node-id="31" stroke="url(#linearGradient-6)" stroke-linecap="butt" stroke-width="1" target-height="29" target-width="28.84375" target-x="65.578125" target-y="56"></path></g></g></g></svg>