<?xml version="1.0" standalone="no"?><!DOCTYPE svg PUBLIC "-//W3C//DTD SVG 1.1//EN" "http://www.w3.org/Graphics/SVG/1.1/DTD/svg11.dtd"><svg t="1706251948204" class="icon" viewBox="0 0 1024 1024" version="1.1" xmlns="http://www.w3.org/2000/svg" p-id="5384" xmlns:xlink="http://www.w3.org/1999/xlink" width="200" height="200"><path d="M428.8 657.92l266.923-361.6a29.61 29.61 0 0 1 52.693 24.32l-1.28 4.181-165.12 418.091a88.32 88.32 0 1 1-159.445-75.307l2.944-4.949 3.242-4.693L695.723 296.32 428.757 657.963z m162.133-111.872l-110.677 149.93-1.707 2.646a24.32 24.32 0 0 0 9.472 33.11l2.859 1.365a24.32 24.32 0 0 0 29.867-10.155l1.706-3.541 68.48-173.355z m203.094-229.717a454.827 454.827 0 0 1 86.272 92.672c22.357 31.957 43.946 70.656 56.32 102.314a32 32 0 1 1-59.606 23.339 351.488 351.488 0 0 0-16.128-34.645l-87.466 50.474a32 32 0 0 1-35.584-52.992l3.626-2.432 86.102-49.749-9.814-13.397a390.656 390.656 0 0 0-45.141-49.494l16.213-41.13a74.221 74.221 0 0 0 3.712-12.459l1.024-6.272 0.427-6.23z m-112.214-66.603a73.173 73.173 0 0 0-17.322 13.995l-4.864 5.973-23.04 31.275A392.747 392.747 0 0 0 544 280.917v114.006a32 32 0 0 1-63.701 4.352l-0.299-4.352V280.149a388.608 388.608 0 0 0-195.925 69.718c-34.816 24.405-65.195 56.405-90.411 94.08l88.832 51.285a32 32 0 0 1-28.075 57.344l-3.925-1.92-88.49-51.072c-5.462 11.35-10.497 23.04-15.19 35.03a32 32 0 0 1-59.648-23.169c34.432-88.533 88.747-163.968 160.17-214.016a454.059 454.059 0 0 1 434.475-47.658z" p-id="5385" fill="#fff"></path></svg>